<svg width="500" height="149" viewBox="0 0 500 149" fill="none" xmlns="http://www.w3.org/2000/svg">
<g id="edges">
<path id="horizontalEdge" d="M36 143L36 118.283" stroke="black" stroke-width="11.2" stroke-miterlimit="10" stroke-linecap="round"/>
<path id="rightEdge" d="M479 142.999L479 84" stroke="black" stroke-width="11.2" stroke-miterlimit="10" stroke-linecap="round"/>
<path id="leftEdge" d="M36.3519 142.999H479" stroke="black" stroke-width="11.2" stroke-miterlimit="10" stroke-linecap="round"/>
</g>
<g id="lightBulb">
<path id="Vector" d="M52.017 79.9565C53.5458 72.9262 57.2228 66.4626 62.4519 61.2447C69.6077 54.1269 73.7507 44.0609 72.8869 33.0361C71.4692 15.2411 56.3813 0.895389 38.3038 0.0436229C17.3012 -0.96056 0 15.5025 0 35.9593C0 45.7853 3.96563 54.6712 10.435 61.1557C15.6855 66.4178 19.4073 72.9023 20.9802 79.955L52.017 79.9565ZM31.1705 20.9376H46.1685L39.6777 33.8855H53.3909L27.3378 63.3396L32.6321 44.671H21.2447L31.1705 20.9376Z" fill="black"/>
<path id="Vector_2" d="M47.586 105L49.6024 99.3228H23.372L25.3874 105H47.586Z" fill="black"/>
<path id="Vector_3" d="M54.3434 94.9564C55.0298 94.9564 55.5836 94.4105 55.5836 93.734V85.5247C55.5836 84.8482 55.0298 84.3023 54.3434 84.3023L18.6532 84.3013C17.9668 84.3013 17.413 84.8472 17.413 85.5237V93.733C17.413 94.4095 17.9668 94.9554 18.6532 94.9554L54.3434 94.9564Z" fill="black"/>
</g>
<g id="socket">
<path id="Vector_4" d="M458 34.9989V50.0943C458 61.1064 467.401 70 479 70C490.6 70 500 61.1064 500 50.0943V34.9989H458ZM484.515 58.626H473.521C472.214 58.626 471.131 57.5968 471.131 56.3573C471.131 55.1164 472.215 54.0886 473.521 54.0886H484.515C485.822 54.0886 486.905 55.1178 486.905 56.3573C486.905 57.5968 485.821 58.626 484.515 58.626ZM487.256 47.5234H470.78C469.473 47.5234 468.39 46.4942 468.39 45.2547C468.39 44.0138 469.474 42.986 470.78 42.986H487.256C488.563 42.986 489.645 44.0152 489.645 45.2547C489.645 46.4942 488.561 47.5234 487.256 47.5234Z" fill="black"/>
<path id="Vector_5" d="M488.848 17.2687C488.848 15.9986 487.796 15 486.458 15C485.151 15 484.068 15.9986 484.068 17.2687V30.0649H488.848L488.848 17.2687Z" fill="black"/>
<path id="Vector_6" d="M475.348 17.2687C475.348 15.9986 474.296 15 472.958 15C471.651 15 470.569 15.9986 470.569 17.2687V30.0649H475.349L475.348 17.2687Z" fill="black"/>
</g>
</svg>
